<svg xmlns="http://www.w3.org/2000/svg" width="162" height="164" viewBox="0 0 162 164" fill="none"><g clip-path="url(#clip0_2683_76665)"><path opacity="0.6" d="M60.5 144C108.825 144 148 104.601 148 56C148 7.39894 108.825 -32 60.5 -32C12.1751 -32 -27 7.39894 -27 56C-27 104.601 12.1751 144 60.5 144Z" fill="#CFEBFA"></path><path fill-rule="evenodd" clip-rule="evenodd" d="M-56.3529 51.24C-57.3549 63.785 -48.1699 74.409 -36.1869 75.725C-36.1869 75.73 -36.1869 75.733 -36.1899 75.738H51.1171C60.7441 75.738 68.8421 68.093 68.9231 58.467C68.9231 58.398 68.9231 58.329 68.9231 58.259C68.9231 45.219 58.5421 34.648 45.7401 34.648C43.7491 34.648 41.8201 34.903 39.9771 35.383C35.9191 22.514 23.8861 13.183 9.67509 13.183C-4.26091 13.183 -16.1019 22.156 -20.3809 34.64C-24.5809 31.613 -29.8549 29.982 -35.5219 30.429C-46.5249 31.297 -55.4739 40.237 -56.3529 51.24Z" fill="white"></path><path d="M112.803 88.314C112.803 88.964 112.395 89.601 111.567 89.601V235.761H96.0208V89.474C94.6188 89.347 94.6188 87.181 96.0208 86.925V62.969C94.4918 62.841 94.6188 60.42 96.1478 60.42H111.567C113.224 60.42 113.224 62.969 111.567 62.969V86.925C112.395 86.989 112.803 87.664 112.803 88.314Z" fill="#007CBB"></path><path opacity="0.19" d="M100.29 60.42V235.761H96.0208V89.474C94.6188 89.347 94.6188 87.181 96.0208 86.925V62.969C94.4918 62.841 94.6188 60.42 96.1478 60.42H100.29Z" fill="#1D2130"></path><path d="M112.71 66.537L86.8418 67.429" stroke="#AAD9F0" stroke-width="2" stroke-miterlimit="10" stroke-linecap="round"></path><path d="M87.6055 79.662L113.09 80.299" stroke="#AAD9F0" stroke-width="2" stroke-miterlimit="10" stroke-linecap="round"></path><path d="M79.3234 88.454C79.9604 87.944 80.5974 87.435 81.3624 86.925C81.447 86.8403 81.532 86.798 81.6174 86.798C81.7444 86.798 81.8724 86.671 81.9994 86.671C82.2544 86.671 82.5094 86.798 82.6364 86.926C82.7634 87.054 82.8914 87.308 82.8914 87.563C82.8914 87.818 82.7644 88.073 82.6364 88.2C81.9994 88.71 81.3624 89.219 80.5974 89.729C80.5127 89.8137 80.4277 89.856 80.3424 89.856C80.2154 89.856 80.0874 89.983 79.9604 89.983C79.7054 89.983 79.4504 89.856 79.3234 89.728C79.1964 89.6 79.0684 89.346 79.0684 89.091C79.0684 88.836 79.1954 88.581 79.3234 88.454Z" fill="#AAD9F0"></path><path d="M79.3234 101.452C79.9604 100.942 80.5974 100.433 81.3624 99.923C81.447 99.8383 81.532 99.796 81.6174 99.796C81.7444 99.796 81.8724 99.669 81.9994 99.669C82.2544 99.669 82.5094 99.796 82.6364 99.924C82.7634 100.051 82.8914 100.306 82.8914 100.561C82.8914 100.816 82.7644 101.071 82.6364 101.198C81.9994 101.708 81.3624 102.217 80.5974 102.727C80.5127 102.812 80.4277 102.854 80.3424 102.854C80.2154 102.854 80.0874 102.981 79.9604 102.981C79.7054 102.981 79.4504 102.854 79.3234 102.726C79.1964 102.599 79.0684 102.344 79.0684 102.089C79.0684 101.834 79.1954 101.579 79.3234 101.452Z" fill="#AAD9F0"></path><path d="M79.3234 114.449C79.9604 113.939 80.5974 113.43 81.3624 112.92C81.447 112.835 81.532 112.793 81.6174 112.793C81.7444 112.793 81.8724 112.666 81.9994 112.666C82.2544 112.666 82.5094 112.793 82.6364 112.921C82.7634 113.048 82.8914 113.303 82.8914 113.558C82.8914 113.813 82.7644 114.068 82.6364 114.195C81.9994 114.705 81.3624 115.214 80.5974 115.724C80.5127 115.809 80.4277 115.851 80.3424 115.851C80.2154 115.851 80.0874 115.978 79.9604 115.978C79.7054 115.978 79.4504 115.851 79.3234 115.723C79.1964 115.596 79.0684 115.341 79.0684 115.086C79.0684 114.831 79.1954 114.576 79.3234 114.449Z" fill="#AAD9F0"></path><path d="M79.3234 127.447C79.9604 126.937 80.5974 126.428 81.3624 125.918C81.447 125.833 81.532 125.791 81.6174 125.791C81.7444 125.791 81.8724 125.664 81.9994 125.664C82.2544 125.664 82.5094 125.791 82.6364 125.919C82.7634 126.046 82.8914 126.301 82.8914 126.556C82.8914 126.811 82.7644 127.066 82.6364 127.193C81.9994 127.703 81.3624 128.212 80.5974 128.722C80.5127 128.807 80.4277 128.849 80.3424 128.849C80.2154 128.849 80.0874 128.976 79.9604 128.976C79.7054 128.976 79.4504 128.849 79.3234 128.721C79.1964 128.594 79.0684 128.339 79.0684 128.084C79.0684 127.829 79.1954 127.574 79.3234 127.447Z" fill="#AAD9F0"></path><path d="M79.3234 140.572C79.9604 140.062 80.5974 139.553 81.3624 139.043C81.447 138.958 81.532 138.916 81.6174 138.916C81.7444 138.916 81.8724 138.789 81.9994 138.789C82.2544 138.789 82.5094 138.916 82.6364 139.044C82.7634 139.171 82.8914 139.426 82.8914 139.681C82.8914 139.936 82.7644 140.191 82.6364 140.318C81.9994 140.828 81.3624 141.337 80.5974 141.847C80.5127 141.932 80.4277 141.974 80.3424 141.974C80.2154 141.974 80.0874 142.101 79.9604 142.101C79.7054 142.101 79.4504 141.974 79.3234 141.846C79.1964 141.719 79.0684 141.464 79.0684 141.209C79.0684 140.954 79.1954 140.699 79.3234 140.572Z" fill="#AAD9F0"></path><path d="M79.3234 153.57C79.9604 153.06 80.5974 152.551 81.3624 152.041C81.447 151.956 81.532 151.914 81.6174 151.914C81.7444 151.914 81.8724 151.787 81.9994 151.787C82.2544 151.787 82.5094 151.914 82.6364 152.042C82.7634 152.169 82.8914 152.424 82.8914 152.679C82.8914 152.934 82.7644 153.189 82.6364 153.316C81.9994 153.826 81.3624 154.335 80.5974 154.845C80.5127 154.93 80.4277 154.972 80.3424 154.972C80.2154 154.972 80.0874 155.099 79.9604 155.099C79.7054 155.099 79.4504 154.972 79.3234 154.844C79.1964 154.717 79.0684 154.462 79.0684 154.207C79.0684 153.952 79.1954 153.697 79.3234 153.57Z" fill="#AAD9F0"></path><path d="M81.1081 87.945H-401.461V88.837H81.1081V87.945Z" fill="#AAD9F0"></path><path d="M81.1081 100.815H-401.461V101.707H81.1081V100.815Z" fill="#AAD9F0"></path><path d="M81.1081 113.812H-401.461V114.704H81.1081V113.812Z" fill="#AAD9F0"></path><path d="M81.1081 126.81H-401.461V127.702H81.1081V126.81Z" fill="#AAD9F0"></path><path d="M81.1081 139.808H-401.461V140.7H81.1081V139.808Z" fill="#AAD9F0"></path><path d="M81.1081 152.805H-401.461V153.697H81.1081V152.805Z" fill="#AAD9F0"></path><path d="M1.21036 79.662H0.318359V235.634H1.21036V79.662Z" fill="#AAD9F0"></path><path d="M14.5912 79.662H13.6992V235.634H14.5912V79.662Z" fill="#AAD9F0"></path><path d="M27.9701 79.662H27.0781V235.634H27.9701V79.662Z" fill="#AAD9F0"></path><path d="M41.349 79.662H40.457V235.634H41.349V79.662Z" fill="#AAD9F0"></path><path d="M54.8568 79.662H53.9648V235.634H54.8568V79.662Z" fill="#AAD9F0"></path><path d="M68.2377 79.662H67.3457V235.634H68.2377V79.662Z" fill="#AAD9F0"></path><path d="M81.6166 79.662H80.7246V235.634H81.6166V79.662Z" fill="#AAD9F0"></path><path d="M65.9425 88.454C66.5795 87.944 67.2165 87.435 67.9815 86.925C68.0662 86.8403 68.1512 86.798 68.2365 86.798C68.3635 86.798 68.4915 86.671 68.6185 86.671C68.8735 86.671 69.1285 86.798 69.2555 86.926C69.3825 87.054 69.5105 87.308 69.5105 87.563C69.5105 87.818 69.3835 88.073 69.2555 88.2C68.6185 88.71 67.9815 89.219 67.2165 89.729C67.1318 89.8137 67.0468 89.856 66.9615 89.856C66.8345 89.856 66.7065 89.983 66.5795 89.983C66.3245 89.983 66.0695 89.856 65.9425 89.728C65.8155 89.6 65.6875 89.346 65.6875 89.091C65.6875 88.836 65.8145 88.581 65.9425 88.454Z" fill="#AAD9F0"></path><path d="M52.5636 88.454C53.2006 87.944 53.8376 87.435 54.6026 86.925C54.6873 86.8403 54.7723 86.798 54.8576 86.798C54.9846 86.798 55.1126 86.671 55.2396 86.671C55.4946 86.671 55.7496 86.798 55.8766 86.926C56.0036 87.054 56.1316 87.308 56.1316 87.563C56.1316 87.818 56.0046 88.073 55.8766 88.2C55.2396 88.71 54.6026 89.219 53.8376 89.729C53.7529 89.8137 53.6679 89.856 53.5826 89.856C53.4556 89.856 53.3276 89.983 53.2006 89.983C52.9456 89.983 52.6906 89.856 52.5636 89.728C52.4366 89.6 52.3086 89.346 52.3086 89.091C52.3086 88.836 52.3086 88.581 52.5636 88.454Z" fill="#AAD9F0"></path><path d="M39.1827 88.454C39.8197 87.944 40.4567 87.435 41.2217 86.925C41.3064 86.8403 41.3914 86.798 41.4767 86.798C41.6037 86.798 41.7317 86.671 41.8587 86.671C42.1137 86.671 42.3687 86.798 42.4957 86.926C42.6227 87.054 42.7507 87.308 42.7507 87.563C42.7507 87.818 42.6237 88.073 42.4957 88.2C41.8587 88.71 41.2217 89.219 40.4567 89.729C40.3721 89.8137 40.2871 89.856 40.2017 89.856C40.0747 89.856 39.9467 89.983 39.8197 89.983C39.5647 89.983 39.3097 89.856 39.1827 89.728C39.0557 89.6 38.9277 89.346 38.9277 89.091C38.9277 88.836 38.9277 88.581 39.1827 88.454Z" fill="#AAD9F0"></path><path d="M25.6769 88.454C26.3139 87.944 26.9509 87.435 27.7159 86.925C27.8005 86.8403 27.8855 86.798 27.9709 86.798C28.0979 86.798 28.2259 86.671 28.3529 86.671C28.6079 86.671 28.8629 86.798 28.9899 86.926C29.1169 87.054 29.2449 87.308 29.2449 87.563C29.2449 87.818 29.1179 88.073 28.9899 88.2C28.3529 88.71 27.7159 89.219 26.9509 89.729C26.8662 89.8137 26.7812 89.856 26.6959 89.856C26.5689 89.856 26.4409 89.983 26.3139 89.983C26.0589 89.983 25.8039 89.856 25.6769 89.728C25.5499 89.6 25.4219 89.346 25.4219 89.091C25.5489 88.836 25.5489 88.581 25.6769 88.454Z" fill="#AAD9F0"></path><path d="M12.296 88.454C12.933 87.944 13.57 87.435 14.335 86.925C14.4197 86.8403 14.5047 86.798 14.59 86.798C14.717 86.798 14.845 86.671 14.972 86.671C15.227 86.671 15.482 86.798 15.609 86.926C15.736 87.054 15.864 87.308 15.864 87.563C15.864 87.818 15.737 88.073 15.609 88.2C14.972 88.71 14.335 89.219 13.57 89.729C13.4853 89.8137 13.4003 89.856 13.315 89.856C13.188 89.856 13.06 89.983 12.933 89.983C12.678 89.983 12.423 89.856 12.296 89.728C12.169 89.6 12.041 89.346 12.041 89.091C12.041 88.836 12.168 88.581 12.296 88.454Z" fill="#AAD9F0"></path><path d="M-1.08289 88.454C-0.445891 87.944 0.191109 87.435 0.956109 86.925C1.04078 86.8403 1.12578 86.798 1.21111 86.798C1.33811 86.798 1.46611 86.671 1.59311 86.671C1.84811 86.671 2.10311 86.798 2.23011 86.926C2.35711 87.054 2.48511 87.308 2.48511 87.563C2.48511 87.818 2.35811 88.073 2.23011 88.2C1.59311 88.71 0.95611 89.219 0.191109 89.729C0.106443 89.8137 0.0214427 89.856 -0.0638907 89.856C-0.190891 89.856 -0.318891 89.983 -0.445891 89.983C-0.700891 89.983 -0.955891 89.856 -1.08289 89.728C-1.20989 89.6 -1.33789 89.346 -1.33789 89.091C-1.33789 88.836 -1.21089 88.581 -1.08289 88.454Z" fill="#AAD9F0"></path><path d="M65.9425 101.452C66.5795 100.942 67.2165 100.433 67.9815 99.923C68.0662 99.8383 68.1512 99.796 68.2365 99.796C68.3635 99.796 68.4915 99.669 68.6185 99.669C68.8735 99.669 69.1285 99.796 69.2555 99.924C69.3825 100.051 69.5105 100.306 69.5105 100.561C69.5105 100.816 69.3835 101.071 69.2555 101.198C68.6185 101.708 67.9815 102.217 67.2165 102.727C67.1318 102.812 67.0468 102.854 66.9615 102.854C66.8345 102.854 66.7065 102.981 66.5795 102.981C66.3245 102.981 66.0695 102.854 65.9425 102.726C65.8155 102.599 65.6875 102.344 65.6875 102.089C65.6875 101.834 65.8145 101.579 65.9425 101.452Z" fill="#AAD9F0"></path><path d="M52.5636 101.452C53.2006 100.942 53.8376 100.433 54.6026 99.923C54.6873 99.8383 54.7723 99.796 54.8576 99.796C54.9846 99.796 55.1126 99.669 55.2396 99.669C55.4946 99.669 55.7496 99.796 55.8766 99.924C56.0036 100.051 56.1316 100.306 56.1316 100.561C56.1316 100.816 56.0046 101.071 55.8766 101.198C55.2396 101.708 54.6026 102.217 53.8376 102.727C53.7529 102.812 53.6679 102.854 53.5826 102.854C53.4556 102.854 53.3276 102.981 53.2006 102.981C52.9456 102.981 52.6906 102.854 52.5636 102.726C52.4366 102.599 52.3086 102.344 52.3086 102.089C52.3086 101.834 52.3086 101.579 52.5636 101.452Z" fill="#AAD9F0"></path><path d="M39.1827 101.452C39.8197 100.942 40.4567 100.433 41.2217 99.923C41.3064 99.8383 41.3914 99.796 41.4767 99.796C41.6037 99.796 41.7317 99.669 41.8587 99.669C42.1137 99.669 42.3687 99.796 42.4957 99.924C42.6227 100.051 42.7507 100.306 42.7507 100.561C42.7507 100.816 42.6237 101.071 42.4957 101.198C41.8587 101.708 41.2217 102.217 40.4567 102.727C40.3721 102.812 40.2871 102.854 40.2017 102.854C40.0747 102.854 39.9467 102.981 39.8197 102.981C39.5647 102.981 39.3097 102.854 39.1827 102.726C39.0557 102.599 38.9277 102.344 38.9277 102.089C38.9277 101.834 38.9277 101.579 39.1827 101.452Z" fill="#AAD9F0"></path><path d="M25.6769 101.452C26.3139 100.942 26.9509 100.433 27.7159 99.923C27.8005 99.8383 27.8855 99.796 27.9709 99.796C28.0979 99.796 28.2259 99.669 28.3529 99.669C28.6079 99.669 28.8629 99.796 28.9899 99.924C29.1169 100.051 29.2449 100.306 29.2449 100.561C29.2449 100.816 29.1179 101.071 28.9899 101.198C28.3529 101.708 27.7159 102.217 26.9509 102.727C26.8662 102.812 26.7812 102.854 26.6959 102.854C26.5689 102.854 26.4409 102.981 26.3139 102.981C26.0589 102.981 25.8039 102.854 25.6769 102.726C25.5499 102.599 25.4219 102.344 25.4219 102.089C25.5489 101.834 25.5489 101.579 25.6769 101.452Z" fill="#AAD9F0"></path><path d="M12.296 101.452C12.933 100.942 13.57 100.433 14.335 99.923C14.4197 99.8383 14.5047 99.796 14.59 99.796C14.717 99.796 14.845 99.669 14.972 99.669C15.227 99.669 15.482 99.796 15.609 99.924C15.736 100.051 15.864 100.306 15.864 100.561C15.864 100.816 15.737 101.071 15.609 101.198C14.972 101.708 14.335 102.217 13.57 102.727C13.4853 102.812 13.4003 102.854 13.315 102.854C13.188 102.854 13.06 102.981 12.933 102.981C12.678 102.981 12.423 102.854 12.296 102.726C12.169 102.599 12.041 102.344 12.041 102.089C12.041 101.834 12.168 101.579 12.296 101.452Z" fill="#AAD9F0"></path><path d="M-1.08289 101.452C-0.445891 100.942 0.191109 100.433 0.956109 99.923C1.04078 99.8383 1.12578 99.796 1.21111 99.796C1.33811 99.796 1.46611 99.669 1.59311 99.669C1.84811 99.669 2.10311 99.796 2.23011 99.924C2.35711 100.051 2.48511 100.306 2.48511 100.561C2.48511 100.816 2.35811 101.071 2.23011 101.198C1.59311 101.708 0.95611 102.217 0.191109 102.727C0.106443 102.812 0.0214427 102.854 -0.0638907 102.854C-0.190891 102.854 -0.318891 102.981 -0.445891 102.981C-0.700891 102.981 -0.955891 102.854 -1.08289 102.726C-1.20989 102.599 -1.33789 102.344 -1.33789 102.089C-1.33789 101.834 -1.21089 101.579 -1.08289 101.452Z" fill="#AAD9F0"></path><path d="M65.9425 114.449C66.5795 113.939 67.2165 113.43 67.9815 112.92C68.0662 112.835 68.1512 112.793 68.2365 112.793C68.3635 112.793 68.4915 112.666 68.6185 112.666C68.8735 112.666 69.1285 112.793 69.2555 112.921C69.3825 113.048 69.5105 113.303 69.5105 113.558C69.5105 113.813 69.3835 114.068 69.2555 114.195C68.6185 114.705 67.9815 115.214 67.2165 115.724C67.1318 115.809 67.0468 115.851 66.9615 115.851C66.8345 115.851 66.7065 115.978 66.5795 115.978C66.3245 115.978 66.0695 115.851 65.9425 115.723C65.8155 115.596 65.6875 115.341 65.6875 115.086C65.6875 114.831 65.8145 114.576 65.9425 114.449Z" fill="#AAD9F0"></path><path d="M52.5636 114.449C53.2006 113.939 53.8376 113.43 54.6026 112.92C54.6873 112.835 54.7723 112.793 54.8576 112.793C54.9846 112.793 55.1126 112.666 55.2396 112.666C55.4946 112.666 55.7496 112.793 55.8766 112.921C56.0036 113.048 56.1316 113.303 56.1316 113.558C56.1316 113.813 56.0046 114.068 55.8766 114.195C55.2396 114.705 54.6026 115.214 53.8376 115.724C53.7529 115.809 53.6679 115.851 53.5826 115.851C53.4556 115.851 53.3276 115.978 53.2006 115.978C52.9456 115.978 52.6906 115.851 52.5636 115.723C52.4366 115.596 52.3086 115.341 52.3086 115.086C52.3086 114.831 52.3086 114.576 52.5636 114.449Z" fill="#AAD9F0"></path><path d="M39.1827 114.449C39.8197 113.939 40.4567 113.43 41.2217 112.92C41.3064 112.835 41.3914 112.793 41.4767 112.793C41.6037 112.793 41.7317 112.666 41.8587 112.666C42.1137 112.666 42.3687 112.793 42.4957 112.921C42.6227 113.048 42.7507 113.303 42.7507 113.558C42.7507 113.813 42.6237 114.068 42.4957 114.195C41.8587 114.705 41.2217 115.214 40.4567 115.724C40.3721 115.809 40.2871 115.851 40.2017 115.851C40.0747 115.851 39.9467 115.978 39.8197 115.978C39.5647 115.978 39.3097 115.851 39.1827 115.723C39.0557 115.596 38.9277 115.341 38.9277 115.086C38.9277 114.831 38.9277 114.576 39.1827 114.449Z" fill="#AAD9F0"></path><path d="M25.6769 114.449C26.3139 113.939 26.9509 113.43 27.7159 112.92C27.8005 112.835 27.8855 112.793 27.9709 112.793C28.0979 112.793 28.2259 112.666 28.3529 112.666C28.6079 112.666 28.8629 112.793 28.9899 112.921C29.1169 113.048 29.2449 113.303 29.2449 113.558C29.2449 113.813 29.1179 114.068 28.9899 114.195C28.3529 114.705 27.7159 115.214 26.9509 115.724C26.8662 115.809 26.7812 115.851 26.6959 115.851C26.5689 115.851 26.4409 115.978 26.3139 115.978C26.0589 115.978 25.8039 115.851 25.6769 115.723C25.5499 115.596 25.4219 115.341 25.4219 115.086C25.5489 114.831 25.5489 114.576 25.6769 114.449Z" fill="#AAD9F0"></path><path d="M12.296 114.449C12.933 113.939 13.57 113.43 14.335 112.92C14.4197 112.835 14.5047 112.793 14.59 112.793C14.717 112.793 14.845 112.666 14.972 112.666C15.227 112.666 15.482 112.793 15.609 112.921C15.736 113.048 15.864 113.303 15.864 113.558C15.864 113.813 15.737 114.068 15.609 114.195C14.972 114.705 14.335 115.214 13.57 115.724C13.4853 115.809 13.4003 115.851 13.315 115.851C13.188 115.851 13.06 115.978 12.933 115.978C12.678 115.978 12.423 115.851 12.296 115.723C12.169 115.596 12.041 115.341 12.041 115.086C12.041 114.831 12.168 114.576 12.296 114.449Z" fill="#AAD9F0"></path><path d="M-1.08289 114.449C-0.445891 113.939 0.191109 113.43 0.956109 112.92C1.04078 112.835 1.12578 112.793 1.21111 112.793C1.33811 112.793 1.46611 112.666 1.59311 112.666C1.84811 112.666 2.10311 112.793 2.23011 112.921C2.35711 113.048 2.48511 113.303 2.48511 113.558C2.48511 113.813 2.35811 114.068 2.23011 114.195C1.59311 114.705 0.95611 115.214 0.191109 115.724C0.106443 115.809 0.0214427 115.851 -0.0638907 115.851C-0.190891 115.851 -0.318891 115.978 -0.445891 115.978C-0.700891 115.978 -0.955891 115.851 -1.08289 115.723C-1.20989 115.596 -1.33789 115.341 -1.33789 115.086C-1.33789 114.831 -1.21089 114.576 -1.08289 114.449Z" fill="#AAD9F0"></path><path d="M65.9425 127.447C66.5795 126.937 67.2165 126.428 67.9815 125.918C68.0662 125.833 68.1512 125.791 68.2365 125.791C68.3635 125.791 68.4915 125.664 68.6185 125.664C68.8735 125.664 69.1285 125.791 69.2555 125.919C69.3825 126.046 69.5105 126.301 69.5105 126.556C69.5105 126.811 69.3835 127.066 69.2555 127.193C68.6185 127.703 67.9815 128.212 67.2165 128.722C67.1318 128.807 67.0468 128.849 66.9615 128.849C66.8345 128.849 66.7065 128.976 66.5795 128.976C66.3245 128.976 66.0695 128.849 65.9425 128.721C65.8155 128.594 65.6875 128.339 65.6875 128.084C65.6875 127.829 65.8145 127.574 65.9425 127.447Z" fill="#AAD9F0"></path><path d="M52.5636 127.447C53.2006 126.937 53.8376 126.428 54.6026 125.918C54.6873 125.833 54.7723 125.791 54.8576 125.791C54.9846 125.791 55.1126 125.664 55.2396 125.664C55.4946 125.664 55.7496 125.791 55.8766 125.919C56.0036 126.046 56.1316 126.301 56.1316 126.556C56.1316 126.811 56.0046 127.066 55.8766 127.193C55.2396 127.703 54.6026 128.212 53.8376 128.722C53.7529 128.807 53.6679 128.849 53.5826 128.849C53.4556 128.849 53.3276 128.976 53.2006 128.976C52.9456 128.976 52.6906 128.849 52.5636 128.721C52.4366 128.594 52.3086 128.339 52.3086 128.084C52.3086 127.829 52.3086 127.574 52.5636 127.447Z" fill="#AAD9F0"></path><path d="M39.1827 127.447C39.8197 126.937 40.4567 126.428 41.2217 125.918C41.3064 125.833 41.3914 125.791 41.4767 125.791C41.6037 125.791 41.7317 125.664 41.8587 125.664C42.1137 125.664 42.3687 125.791 42.4957 125.919C42.6227 126.046 42.7507 126.301 42.7507 126.556C42.7507 126.811 42.6237 127.066 42.4957 127.193C41.8587 127.703 41.2217 128.212 40.4567 128.722C40.3721 128.807 40.2871 128.849 40.2017 128.849C40.0747 128.849 39.9467 128.976 39.8197 128.976C39.5647 128.976 39.3097 128.849 39.1827 128.721C39.0557 128.594 38.9277 128.339 38.9277 128.084C38.9277 127.829 38.9277 127.574 39.1827 127.447Z" fill="#AAD9F0"></path><path d="M25.6769 127.447C26.3139 126.937 26.9509 126.428 27.7159 125.918C27.8005 125.833 27.8855 125.791 27.9709 125.791C28.0979 125.791 28.2259 125.664 28.3529 125.664C28.6079 125.664 28.8629 125.791 28.9899 125.919C29.1169 126.046 29.2449 126.301 29.2449 126.556C29.2449 126.811 29.1179 127.066 28.9899 127.193C28.3529 127.703 27.7159 128.212 26.9509 128.722C26.8662 128.807 26.7812 128.849 26.6959 128.849C26.5689 128.849 26.4409 128.976 26.3139 128.976C26.0589 128.976 25.8039 128.849 25.6769 128.721C25.5499 128.594 25.4219 128.339 25.4219 128.084C25.5489 127.829 25.5489 127.574 25.6769 127.447Z" fill="#AAD9F0"></path><path d="M12.296 127.447C12.933 126.937 13.57 126.428 14.335 125.918C14.4197 125.833 14.5047 125.791 14.59 125.791C14.717 125.791 14.845 125.664 14.972 125.664C15.227 125.664 15.482 125.791 15.609 125.919C15.736 126.046 15.864 126.301 15.864 126.556C15.864 126.811 15.737 127.066 15.609 127.193C14.972 127.703 14.335 128.212 13.57 128.722C13.4853 128.807 13.4003 128.849 13.315 128.849C13.188 128.849 13.06 128.976 12.933 128.976C12.678 128.976 12.423 128.849 12.296 128.721C12.169 128.594 12.041 128.339 12.041 128.084C12.041 127.829 12.168 127.574 12.296 127.447Z" fill="#AAD9F0"></path><path d="M-1.08289 127.447C-0.445891 126.937 0.191109 126.428 0.956109 125.918C1.04078 125.833 1.12578 125.791 1.21111 125.791C1.33811 125.791 1.46611 125.664 1.59311 125.664C1.84811 125.664 2.10311 125.791 2.23011 125.919C2.35711 126.046 2.48511 126.301 2.48511 126.556C2.48511 126.811 2.35811 127.066 2.23011 127.193C1.59311 127.703 0.95611 128.212 0.191109 128.722C0.106443 128.807 0.0214427 128.849 -0.0638907 128.849C-0.190891 128.849 -0.318891 128.976 -0.445891 128.976C-0.700891 128.976 -0.955891 128.849 -1.08289 128.721C-1.20989 128.594 -1.33789 128.339 -1.33789 128.084C-1.33789 127.829 -1.21089 127.574 -1.08289 127.447Z" fill="#AAD9F0"></path><path d="M65.9425 140.572C66.5795 140.062 67.2165 139.553 67.9815 139.043C68.0662 138.958 68.1512 138.916 68.2365 138.916C68.3635 138.916 68.4915 138.789 68.6185 138.789C68.8735 138.789 69.1285 138.916 69.2555 139.044C69.3825 139.171 69.5105 139.426 69.5105 139.681C69.5105 139.936 69.3835 140.191 69.2555 140.318C68.6185 140.828 67.9815 141.337 67.2165 141.847C67.1318 141.932 67.0468 141.974 66.9615 141.974C66.8345 141.974 66.7065 142.101 66.5795 142.101C66.3245 142.101 66.0695 141.974 65.9425 141.846C65.8155 141.719 65.6875 141.464 65.6875 141.209C65.6875 140.954 65.8145 140.699 65.9425 140.572Z" fill="#AAD9F0"></path><path d="M52.5636 140.572C53.2006 140.062 53.8376 139.553 54.6026 139.043C54.6873 138.958 54.7723 138.916 54.8576 138.916C54.9846 138.916 55.1126 138.789 55.2396 138.789C55.4946 138.789 55.7496 138.916 55.8766 139.044C56.0036 139.171 56.1316 139.426 56.1316 139.681C56.1316 139.936 56.0046 140.191 55.8766 140.318C55.2396 140.828 54.6026 141.337 53.8376 141.847C53.7529 141.932 53.6679 141.974 53.5826 141.974C53.4556 141.974 53.3276 142.101 53.2006 142.101C52.9456 142.101 52.6906 141.974 52.5636 141.846C52.4366 141.719 52.3086 141.464 52.3086 141.209C52.3086 140.954 52.3086 140.699 52.5636 140.572Z" fill="#AAD9F0"></path><path d="M39.1827 140.572C39.8197 140.062 40.4567 139.553 41.2217 139.043C41.3064 138.958 41.3914 138.916 41.4767 138.916C41.6037 138.916 41.7317 138.789 41.8587 138.789C42.1137 138.789 42.3687 138.916 42.4957 139.044C42.6227 139.171 42.7507 139.426 42.7507 139.681C42.7507 139.936 42.6237 140.191 42.4957 140.318C41.8587 140.828 41.2217 141.337 40.4567 141.847C40.3721 141.932 40.2871 141.974 40.2017 141.974C40.0747 141.974 39.9467 142.101 39.8197 142.101C39.5647 142.101 39.3097 141.974 39.1827 141.846C39.0557 141.719 38.9277 141.464 38.9277 141.209C38.9277 140.954 38.9277 140.699 39.1827 140.572Z" fill="#AAD9F0"></path><path d="M25.6769 140.572C26.3139 140.062 26.9509 139.553 27.7159 139.043C27.8005 138.958 27.8855 138.916 27.9709 138.916C28.0979 138.916 28.2259 138.789 28.3529 138.789C28.6079 138.789 28.8629 138.916 28.9899 139.044C29.1169 139.171 29.2449 139.426 29.2449 139.681C29.2449 139.936 29.1179 140.191 28.9899 140.318C28.3529 140.828 27.7159 141.337 26.9509 141.847C26.8662 141.932 26.7812 141.974 26.6959 141.974C26.5689 141.974 26.4409 142.101 26.3139 142.101C26.0589 142.101 25.8039 141.974 25.6769 141.846C25.5499 141.719 25.4219 141.464 25.4219 141.209C25.5489 140.954 25.5489 140.699 25.6769 140.572Z" fill="#AAD9F0"></path><path d="M12.296 140.572C12.933 140.062 13.57 139.553 14.335 139.043C14.4197 138.958 14.5047 138.916 14.59 138.916C14.717 138.916 14.845 138.789 14.972 138.789C15.227 138.789 15.482 138.916 15.609 139.044C15.736 139.171 15.864 139.426 15.864 139.681C15.864 139.936 15.737 140.191 15.609 140.318C14.972 140.828 14.335 141.337 13.57 141.847C13.4853 141.932 13.4003 141.974 13.315 141.974C13.188 141.974 13.06 142.101 12.933 142.101C12.678 142.101 12.423 141.974 12.296 141.846C12.169 141.719 12.041 141.464 12.041 141.209C12.041 140.954 12.168 140.699 12.296 140.572Z" fill="#AAD9F0"></path><path d="M-1.08289 140.572C-0.445891 140.062 0.191109 139.553 0.956109 139.043C1.04078 138.958 1.12578 138.916 1.21111 138.916C1.33811 138.916 1.46611 138.789 1.59311 138.789C1.84811 138.789 2.10311 138.916 2.23011 139.044C2.35711 139.171 2.48511 139.426 2.48511 139.681C2.48511 139.936 2.35811 140.191 2.23011 140.318C1.59311 140.828 0.95611 141.337 0.191109 141.847C0.106443 141.932 0.0214427 141.974 -0.0638907 141.974C-0.190891 141.974 -0.318891 142.101 -0.445891 142.101C-0.700891 142.101 -0.955891 141.974 -1.08289 141.846C-1.20989 141.719 -1.33789 141.464 -1.33789 141.209C-1.33789 140.954 -1.21089 140.699 -1.08289 140.572Z" fill="#AAD9F0"></path><path d="M65.9425 153.57C66.5795 153.06 67.2165 152.551 67.9815 152.041C68.0662 151.956 68.1512 151.914 68.2365 151.914C68.3635 151.914 68.4915 151.787 68.6185 151.787C68.8735 151.787 69.1285 151.914 69.2555 152.042C69.3825 152.169 69.5105 152.424 69.5105 152.679C69.5105 152.934 69.3835 153.189 69.2555 153.316C68.6185 153.826 67.9815 154.335 67.2165 154.845C67.1318 154.93 67.0468 154.972 66.9615 154.972C66.8345 154.972 66.7065 155.099 66.5795 155.099C66.3245 155.099 66.0695 154.972 65.9425 154.844C65.8155 154.717 65.6875 154.462 65.6875 154.207C65.6875 153.952 65.8145 153.697 65.9425 153.57Z" fill="#AAD9F0"></path><path d="M52.5636 153.57C53.2006 153.06 53.8376 152.551 54.6026 152.041C54.6873 151.956 54.7723 151.914 54.8576 151.914C54.9846 151.914 55.1126 151.787 55.2396 151.787C55.4946 151.787 55.7496 151.914 55.8766 152.042C56.0036 152.169 56.1316 152.424 56.1316 152.679C56.1316 152.934 56.0046 153.189 55.8766 153.316C55.2396 153.826 54.6026 154.335 53.8376 154.845C53.7529 154.93 53.6679 154.972 53.5826 154.972C53.4556 154.972 53.3276 155.099 53.2006 155.099C52.9456 155.099 52.6906 154.972 52.5636 154.844C52.4366 154.717 52.3086 154.462 52.3086 154.207C52.3086 153.952 52.3086 153.697 52.5636 153.57Z" fill="#AAD9F0"></path><path d="M39.1827 153.57C39.8197 153.06 40.4567 152.551 41.2217 152.041C41.3064 151.956 41.3914 151.914 41.4767 151.914C41.6037 151.914 41.7317 151.787 41.8587 151.787C42.1137 151.787 42.3687 151.914 42.4957 152.042C42.6227 152.169 42.7507 152.424 42.7507 152.679C42.7507 152.934 42.6237 153.189 42.4957 153.316C41.8587 153.826 41.2217 154.335 40.4567 154.845C40.3721 154.93 40.2871 154.972 40.2017 154.972C40.0747 154.972 39.9467 155.099 39.8197 155.099C39.5647 155.099 39.3097 154.972 39.1827 154.844C39.0557 154.717 38.9277 154.462 38.9277 154.207C38.9277 153.952 38.9277 153.697 39.1827 153.57Z" fill="#AAD9F0"></path><path d="M25.6769 153.57C26.3139 153.06 26.9509 152.551 27.7159 152.041C27.8005 151.956 27.8855 151.914 27.9709 151.914C28.0979 151.914 28.2259 151.787 28.3529 151.787C28.6079 151.787 28.8629 151.914 28.9899 152.042C29.1169 152.169 29.2449 152.424 29.2449 152.679C29.2449 152.934 29.1179 153.189 28.9899 153.316C28.3529 153.826 27.7159 154.335 26.9509 154.845C26.8662 154.93 26.7812 154.972 26.6959 154.972C26.5689 154.972 26.4409 155.099 26.3139 155.099C26.0589 155.099 25.8039 154.972 25.6769 154.844C25.5499 154.717 25.4219 154.462 25.4219 154.207C25.5489 153.952 25.5489 153.697 25.6769 153.57Z" fill="#AAD9F0"></path><path d="M12.296 153.57C12.933 153.06 13.57 152.551 14.335 152.041C14.4197 151.956 14.5047 151.914 14.59 151.914C14.717 151.914 14.845 151.787 14.972 151.787C15.227 151.787 15.482 151.914 15.609 152.042C15.736 152.169 15.864 152.424 15.864 152.679C15.864 152.934 15.737 153.189 15.609 153.316C14.972 153.826 14.335 154.335 13.57 154.845C13.4853 154.93 13.4003 154.972 13.315 154.972C13.188 154.972 13.06 155.099 12.933 155.099C12.678 155.099 12.423 154.972 12.296 154.844C12.169 154.717 12.041 154.462 12.041 154.207C12.041 153.952 12.168 153.697 12.296 153.57Z" fill="#AAD9F0"></path><path d="M-1.08289 153.57C-0.445891 153.06 0.191109 152.551 0.956109 152.041C1.04078 151.956 1.12578 151.914 1.21111 151.914C1.33811 151.914 1.46611 151.787 1.59311 151.787C1.84811 151.787 2.10311 151.914 2.23011 152.042C2.35711 152.169 2.48511 152.424 2.48511 152.679C2.48511 152.934 2.35811 153.189 2.23011 153.316C1.59311 153.826 0.95611 154.335 0.191109 154.845C0.106443 154.93 0.0214427 154.972 -0.0638907 154.972C-0.190891 154.972 -0.318891 155.099 -0.445891 155.099C-0.700891 155.099 -0.955891 154.972 -1.08289 154.844C-1.20989 154.717 -1.33789 154.462 -1.33789 154.207C-1.33789 153.952 -1.21089 153.697 -1.08289 153.57Z" fill="#AAD9F0"></path><path d="M-408.598 78.642C-249.568 77.113 -83.4017 77.24 88.2433 78.642V61.184C-68.7477 62.076 -235.169 62.331 -408.598 61.184V78.642Z" fill="#007CBB"></path><path d="M-408.598 81.063C-249.568 79.534 -83.4017 79.661 88.2433 81.063V66.154C-68.7477 67.046 -235.169 67.301 -408.598 66.154V81.063Z" fill="#75BADD"></path><path d="M81.2344 101.452L113.091 132.799" stroke="#AAD9F0" stroke-width="2" stroke-miterlimit="10" stroke-linecap="round"></path><path d="M153.575 8.04002C152.939 5.95902 152.091 3.98402 151.071 2.15602C150.648 1.39202 150.203 0.647024 149.713 -0.0699759C149.457 -0.465976 149.179 -0.840975 148.898 -1.22898C148.767 -1.39198 148.652 -1.54698 148.521 -1.70998C148.295 -2.00698 148.073 -2.29098 147.826 -2.56698C147.564 -2.89298 147.293 -3.20298 147.01 -3.50898C146.616 -3.95698 146.2 -4.38498 145.776 -4.79698C145.436 -5.11298 145.108 -5.43198 144.759 -5.73198C144.475 -5.99698 144.182 -6.24598 143.877 -6.49098C143.295 -6.97698 142.709 -7.43398 142.092 -7.85498C141.847 -8.03698 141.593 -8.20298 141.339 -8.36998C140.924 -8.66298 140.493 -8.92398 140.061 -9.18398C139.98 -9.22698 139.896 -9.28198 139.815 -9.32498C139.581 -9.46998 139.338 -9.59898 139.108 -9.73198C138.865 -9.86098 138.607 -9.99798 138.352 -10.124C137.98 -10.322 137.599 -10.503 137.207 -10.681C136.859 -10.845 136.498 -11.006 136.141 -11.154C134.916 -11.66 133.649 -12.085 132.363 -12.436C131.98 -12.536 131.585 -12.632 131.194 -12.715C130.885 -12.796 130.554 -12.858 130.236 -12.923C130.016 -12.978 129.788 -13.016 129.563 -13.042C129.265 -13.086 128.979 -13.134 128.682 -13.179C128.637 -13.192 128.584 -13.19 128.543 -13.191C128.159 -13.25 127.78 -13.296 127.403 -13.33C126.283 -13.448 125.149 -13.481 124.006 -13.456C123.732 -13.467 123.465 -13.453 123.186 -13.436C122.69 -13.42 122.185 -13.387 121.688 -13.33C121.277 -13.299 120.858 -13.252 120.447 -13.181C120.209 -13.162 119.966 -13.115 119.736 -13.072C119.502 -13.041 119.255 -13.006 119.028 -12.95C118.847 -12.922 118.666 -12.893 118.477 -12.849C118.069 -12.765 117.674 -12.685 117.274 -12.576C117.233 -12.577 117.184 -12.562 117.134 -12.547C116.631 -12.42 116.144 -12.285 115.649 -12.134C100.441 -7.48298 91.528 8.01303 94.829 23.281C95.005 24.121 95.221 24.962 95.479 25.805L95.524 25.954C95.653 26.375 95.798 26.805 95.951 27.218C96.146 27.768 96.354 28.314 96.582 28.84C96.764 29.258 96.942 29.664 97.133 30.066C97.161 30.112 97.188 30.157 97.219 30.216C97.386 30.585 97.565 30.95 97.766 31.295C98.181 32.076 98.625 32.82 99.107 33.553C99.285 33.824 99.458 34.082 99.632 34.34C99.842 34.628 100.036 34.907 100.242 35.183C100.448 35.459 100.663 35.718 100.881 35.99C101.06 36.22 101.254 36.458 101.445 36.684C101.541 36.777 101.625 36.873 101.708 36.969C102.086 37.409 102.469 37.82 102.877 38.223C102.901 38.256 102.921 38.277 102.941 38.298C103.177 38.537 103.409 38.764 103.653 38.988C103.901 39.224 104.149 39.459 104.406 39.679C107.34 42.276 110.752 44.266 114.423 45.554C115.381 45.898 116.349 46.184 117.327 46.413C122.469 47.684 127.989 47.622 133.414 45.963C137.773 44.63 141.618 42.411 144.779 39.549C145.453 38.964 146.087 38.336 146.698 37.676C147.304 37.044 147.87 36.37 148.403 35.678C148.792 35.18 149.178 34.669 149.527 34.129C154.606 26.78 156.393 17.254 153.575 8.04002Z" fill="#AAD9F0"></path><g opacity="0.52"><path d="M129.195 33.938C140.617 33.346 151.541 25.762 154.843 15.039C155.181 20.453 154.078 26.025 151.345 31.165C143.47 45.978 125.077 51.603 110.263 43.727C97.3729 36.874 91.4459 22.058 95.3119 8.56598C99.3489 23.786 110.582 35.793 129.195 33.938Z" fill="#75BADD"></path></g><path d="M139.727 3.01099C134.118 0.256987 127.612 0.417987 122.056 3.24099C119.209 4.69399 116.766 6.88999 114.991 9.54499C113.064 12.409 111.906 15.797 109.555 18.385C105.919 22.395 100.121 24.249 94.8281 23.281C95.0041 24.121 95.2201 24.962 95.4781 25.805L95.5231 25.954C100.229 26.506 105.113 25.297 108.967 22.398C111.368 20.594 113.081 18.269 114.515 15.65C116.086 12.772 117.499 9.86199 120.044 7.68899C124.838 3.56899 131.851 2.41299 137.664 4.90099C143.573 7.44099 147.66 12.922 148.62 19.251C149.678 26.254 147.437 33.142 144.778 39.548C145.452 38.963 146.086 38.335 146.697 37.675C147.303 37.043 147.869 36.369 148.402 35.677C148.791 35.179 149.177 34.668 149.526 34.128C151.214 28.709 152.084 23.094 150.902 17.415C149.603 11.217 145.432 5.81599 139.726 3.00999L139.727 3.01099Z" fill="white"></path></g><defs><clipPath id="clip0_2683_76665"><path d="M0 38.4C0 24.9587 0 18.2381 2.61584 13.1042C4.9168 8.58834 8.58834 4.9168 13.1042 2.61584C18.2381 0 24.9587 0 38.4 0H162V164H38.4C24.9587 164 18.2381 164 13.1042 161.384C8.58834 159.083 4.9168 155.412 2.61584 150.896C0 145.762 0 139.041 0 125.6V38.4Z" fill="white"></path></clipPath></defs></svg>