<svg xmlns="http://www.w3.org/2000/svg" width="162" height="164" viewBox="0 0 162 164" fill="none"><g id="illustration-benefit"><g clip-path="url(#clip0_2683_76648)"><g id="Group"><path id="Vector" opacity="0.6" d="M60.5 144C108.825 144 148 104.601 148 56C148 7.39894 108.825 -32 60.5 -32C12.1751 -32 -27 7.39894 -27 56C-27 104.601 12.1751 144 60.5 144Z" fill="#CFEBFA"></path><path id="Vector_2" fill-rule="evenodd" clip-rule="evenodd" d="M-47.6328 31.226C-48.6008 43.344 -39.7278 53.607 -28.1528 54.878C-28.1528 54.883 -28.1528 54.886 -28.1548 54.891H56.1812C65.4802 54.891 73.3032 47.506 73.3812 38.207C73.3812 38.14 73.3812 38.073 73.3812 38.006C73.3812 25.409 63.3532 15.198 50.9862 15.198C49.0632 15.198 47.1992 15.444 45.4192 15.908C41.5012 3.47701 29.8772 -5.53699 16.1492 -5.53699C2.68721 -5.53699 -8.74979 3.13101 -12.8848 15.19C-16.9428 12.266 -22.0368 10.691 -27.5108 11.122C-38.1398 11.96 -46.7828 20.598 -47.6328 31.226Z" fill="white"></path><path id="Vector_3" d="M9.49323 132.024L-5.75977 193.889H6.15223L21.8932 136.628L11.2572 133.586" fill="#1D2130"></path><path id="Vector_4" d="M85.6227 132.024L100.876 193.889H88.9637L73.2227 136.628L83.8587 133.586" fill="#1D2130"></path><path id="Vector_5" d="M96.0217 139.457C121.182 114.297 121.182 73.5047 96.0217 48.3448C70.8618 23.1849 30.0695 23.1849 4.90958 48.3448C-20.2503 73.5047 -20.2503 114.297 4.90958 139.457C30.0695 164.617 70.8618 164.617 96.0217 139.457Z" fill="#BF0037"></path><path id="Vector_6" d="M80.8841 146.345C112.25 129.545 124.058 90.4995 107.258 59.1338C90.4582 27.7681 51.4123 15.9601 20.0466 32.7599C-11.3191 49.5598 -23.1271 88.6057 -6.3273 119.971C10.4725 151.337 49.5184 163.145 80.8841 146.345Z" fill="#EB0045"></path><path id="Vector_7" d="M85.2575 115.079C99.3557 95.8636 95.2073 68.8574 75.9917 54.7591C56.7761 40.6609 29.7699 44.8093 15.6716 64.0249C1.57341 83.2405 5.72186 110.247 24.9375 124.345C44.1531 138.443 71.1593 134.295 85.2575 115.079Z" fill="white"></path><path id="Vector_8" d="M71.5754 90.079C71.2844 101.738 61.5964 110.954 49.9364 110.663C38.2774 110.372 29.0614 100.684 29.3524 89.025C29.6434 77.365 39.3324 68.15 50.9914 68.441C62.6514 68.732 71.8664 78.419 71.5754 90.079Z" fill="#EB0045"></path><g id="Group_2" opacity="0.3"><path id="Vector_9" d="M53.2637 89.313L103.45 52.946C101.84 50.405 99.7757 47.844 97.4747 45.272L53.3487 85.965L53.2637 89.313Z" fill="black"></path></g><path id="Vector_10" d="M100.353 39.734L98.832 24.826L114.363 9.01398L115.051 25.078L100.353 39.734Z" fill="#007CBB"></path><path id="Vector_11" d="M133.117 28.719L117.802 27.087L102.049 41.5L117.395 43.529L133.117 28.719Z" fill="#007CBB"></path><path id="Vector_12" d="M115.729 22.85C108.32 29.899 100.911 36.949 93.5034 43.998C81.7504 55.181 69.9964 66.364 58.2424 77.548C55.5404 80.119 52.8384 82.69 50.1374 85.261C47.5684 87.705 51.3854 91.67 53.9564 89.224C61.3654 82.175 68.7744 75.125 76.1824 68.076C87.9364 56.893 99.6894 45.709 111.443 34.526C114.145 31.955 116.846 29.384 119.548 26.814C122.116 24.37 118.3 20.404 115.729 22.85Z" fill="#1D2130"></path></g></g></g><defs><clipPath id="clip0_2683_76648"><path d="M0 38.4C0 24.9587 0 18.2381 2.61584 13.1042C4.9168 8.58834 8.58834 4.9168 13.1042 2.61584C18.2381 0 24.9587 0 38.4 0H162V164H38.4C24.9587 164 18.2381 164 13.1042 161.384C8.58834 159.083 4.9168 155.412 2.61584 150.896C0 145.762 0 139.041 0 125.6V38.4Z" fill="white"></path></clipPath></defs></svg>