<svg xmlns="http://www.w3.org/2000/svg" width="162" height="164" viewBox="0 0 162 164" fill="none"><g id="illustration-benefit"><g clip-path="url(#clip0_2683_76628)"><g id="Group"><path id="Vector" opacity="0.6" d="M60.5 140C108.825 140 148 100.601 148 52C148 3.39894 108.825 -36 60.5 -36C12.1751 -36 -27 3.39894 -27 52C-27 100.601 12.1751 140 60.5 140Z" fill="#CFEBFA"></path><path id="Vector_2" fill-rule="evenodd" clip-rule="evenodd" d="M98.7458 28.019C93.0798 27.572 87.8058 29.203 83.6048 32.23C79.3248 19.746 67.4848 10.773 53.5488 10.773C39.3368 10.773 27.3038 20.104 23.2468 32.973C21.4038 32.493 19.4748 32.238 17.4838 32.238C4.68178 32.238 -5.69922 42.809 -5.69922 55.849C-5.69922 55.918 -5.69922 55.988 -5.69922 56.057C-5.61822 65.683 2.47978 73.328 12.1068 73.328H99.4128C99.4098 73.323 99.4098 73.32 99.4098 73.315C111.393 71.999 120.579 61.375 119.576 48.83C118.697 37.828 109.748 28.886 98.7448 28.018L98.7458 28.019ZM60.9318 121.8H61.0218H60.8418H60.9318Z" fill="white"></path><path id="Vector_3" d="M66.9885 73.053C66.9885 79.381 61.8575 84.511 55.5305 84.511C49.2035 84.511 44.0725 78.183 44.0725 84.511V99.36C44.0725 103.427 40.7755 106.724 36.7085 106.724H21.8575C15.5295 106.724 21.8575 101.593 21.8575 95.266C21.8575 88.939 16.7295 83.808 10.3995 83.808C4.06951 83.808 -1.05849 88.939 -1.05849 95.266C-1.05849 101.593 5.27151 106.724 -1.05849 106.724H-15.9075C-19.9745 106.724 -23.2715 103.427 -23.2715 99.36V46.746C-23.2715 42.679 -19.9745 39.382 -15.9075 39.382H36.7095C40.7765 39.382 44.0735 42.679 44.0735 46.746V61.595C44.0735 67.923 49.2015 61.595 55.5315 61.595C61.8615 61.595 66.9895 66.726 66.9895 73.053H66.9885Z" fill="#47A3D6"></path><path id="Vector_4" d="M66.9885 70.218C66.9885 76.546 61.8575 81.676 55.5305 81.676C49.2035 81.676 44.0725 75.348 44.0725 81.676V96.525C44.0725 100.592 40.7755 103.889 36.7085 103.889H21.8575C15.5295 103.889 21.8575 98.758 21.8575 92.431C21.8575 86.104 16.7295 80.973 10.3995 80.973C4.06951 80.973 -1.05849 86.104 -1.05849 92.431C-1.05849 98.758 5.27151 103.889 -1.05849 103.889H-15.9075C-19.9745 103.889 -23.2715 100.592 -23.2715 96.525V43.911C-23.2715 39.844 -19.9745 36.547 -15.9075 36.547H36.7095C40.7765 36.547 44.0735 39.844 44.0735 43.911V58.76C44.0735 65.088 49.2015 58.76 55.5315 58.76C61.8615 58.76 66.9895 63.891 66.9895 70.218H66.9885Z" fill="#75BADD"></path><path id="Vector_5" d="M-0.9655 93.784C-0.3665 98.313 2.9265 102.031 1.3135 103.364C0.5215 101.288 -1.0625 98.429 -1.0625 95.271C-1.0625 94.769 -1.0335 94.267 -0.9655 93.784Z" fill="#BF0037"></path><path id="Vector_6" d="M21.7566 93.784C21.8246 94.267 21.8536 94.769 21.8536 95.271C21.8536 98.429 20.2796 101.288 19.4876 103.364C17.8656 102.031 21.1586 98.313 21.7566 93.784Z" fill="#BF0037"></path><path id="Vector_7" d="M99.2249 76.66C93.2729 74.511 90.1899 67.943 92.3389 61.991C94.4889 56.037 102.182 53.362 96.23 51.213L82.2769 46.175C78.4439 44.791 76.459 40.562 77.843 36.73L82.882 22.775C85.031 16.823 87.708 24.517 93.66 26.666C99.612 28.815 106.179 25.734 108.329 19.78C110.478 13.828 107.395 7.26 101.443 5.111C95.491 2.962 88.516 7.174 90.665 1.22L95.703 -12.733C97.087 -16.566 101.316 -18.551 105.148 -17.167L154.608 0.692003C158.441 2.076 160.426 6.305 159.042 10.137L141.183 59.6C139.799 63.433 135.57 65.418 131.738 64.034L117.785 58.996C111.833 56.847 116.044 63.819 113.894 69.774C111.745 75.726 105.177 78.809 99.2249 76.66Z" fill="#75BADD"></path><path id="Vector_8" d="M100.436 73.635C94.4839 71.486 91.4009 64.918 93.5499 58.966C95.6999 53.012 103.393 50.337 97.4409 48.188L83.4879 43.15C79.6549 41.766 77.6699 37.537 79.0539 33.705L84.0929 19.75C86.2419 13.798 88.9189 21.492 94.8709 23.641C100.823 25.79 107.39 22.709 109.54 16.755C111.689 10.803 108.606 4.23498 102.654 2.08598C96.7019 -0.0630226 89.7269 4.14898 91.8759 -1.80502L96.9139 -15.758C98.2979 -19.591 102.527 -21.576 106.359 -20.192L155.819 -2.33302C159.652 -0.94902 161.637 3.27998 160.253 7.11198L142.394 56.575C141.01 60.408 136.781 62.393 132.949 61.009L118.996 55.971C113.044 53.822 117.255 60.794 115.105 66.749C112.956 72.701 106.388 75.784 100.436 73.635Z" fill="#AAD9F0"></path><path id="Vector_9" d="M21.1533 140.396C21.1533 134.068 26.2843 128.938 32.6113 128.938C38.9383 128.938 44.0693 135.266 44.0693 128.938V114.102C44.0693 110.028 47.3723 106.726 51.4453 106.726H66.2843C72.6123 106.726 66.2843 111.857 66.2843 118.184C66.2843 124.511 71.4123 129.642 77.7423 129.642C84.0723 129.642 89.2003 124.511 89.2003 118.184C89.2003 111.857 82.8703 106.726 89.2003 106.726H104.036C108.11 106.726 111.412 110.029 111.412 114.102V166.691C111.412 170.765 108.109 174.067 104.036 174.067H51.4443C47.3703 174.067 44.0683 170.764 44.0683 166.691V151.855C44.0683 145.527 38.9403 151.855 32.6103 151.855C26.2803 151.855 21.1523 146.724 21.1523 140.397L21.1533 140.396Z" fill="#AAD9F0"></path><path id="Vector_10" d="M44.0716 116.915V131.757C44.0716 138.086 38.9416 131.757 32.6136 131.757C26.7556 131.757 21.9366 136.148 21.2406 141.813C21.1876 142.274 21.1546 142.745 21.1546 143.216C21.1546 149.545 26.2836 154.675 32.6126 154.675C38.9416 154.675 44.0706 148.346 44.0706 154.675V169.517C44.0706 173.586 40.7726 176.885 36.7026 176.885H-15.8974C-19.9664 176.885 -23.2754 173.587 -23.2754 169.517V116.915C-23.2754 112.835 -19.9664 109.536 -15.8974 109.536H-1.05539C2.10361 109.536 2.10361 108.251 1.32161 106.184C2.92761 104.845 -0.35939 101.14 -0.959391 96.621C-0.25239 90.978 4.56661 86.619 10.4026 86.619C16.2386 86.619 21.0576 90.978 21.7646 96.621C21.1646 101.14 17.8776 104.846 19.4836 106.184C18.7016 108.251 18.7016 109.536 21.8606 109.536H36.7036C40.7726 109.536 44.0716 112.834 44.0716 116.915Z" fill="#255599"></path><path id="Vector_11" d="M44.0716 114.099V128.941C44.0716 135.27 38.9416 128.941 32.6136 128.941C26.2856 128.941 21.1556 134.071 21.1556 140.4C21.1556 140.882 21.1876 141.353 21.2416 141.813C21.9376 147.478 26.7676 151.858 32.6146 151.858C38.9436 151.858 44.0726 145.529 44.0726 151.858V166.701C44.0726 170.77 40.7746 174.069 36.7046 174.069H-15.8974C-19.9664 174.069 -23.2754 170.771 -23.2754 166.701V114.099C-23.2754 110.019 -19.9664 106.72 -15.8974 106.72H-1.05539C0.15461 106.72 0.904608 106.538 1.32161 106.185C2.92761 104.846 -0.35939 101.141 -0.959391 96.622C-1.02339 96.183 -1.05539 95.723 -1.05539 95.262C-1.05539 88.933 4.07361 83.803 10.4026 83.803C16.7316 83.803 21.8606 88.933 21.8606 95.262C21.8606 95.722 21.8286 96.183 21.7646 96.622C21.1646 101.141 17.8776 104.847 19.4836 106.185C19.9016 106.538 20.6506 106.72 21.8606 106.72H36.7036C40.7726 106.72 44.0716 110.018 44.0716 114.099Z" fill="#007CBB"></path></g></g></g><defs><clipPath id="clip0_2683_76628"><path d="M0 38.4C0 24.9587 0 18.2381 2.61584 13.1042C4.9168 8.58834 8.58834 4.9168 13.1042 2.61584C18.2381 0 24.9587 0 38.4 0H162V164H38.4C24.9587 164 18.2381 164 13.1042 161.384C8.58834 159.083 4.9168 155.412 2.61584 150.896C0 145.762 0 139.041 0 125.6V38.4Z" fill="white"></path></clipPath></defs></svg>