<svg width="60" style="margin-bottom: 10px" xmlns="http://www.w3.org/2000/svg" viewBox="0 0 512 512" id="send-messages">
  <g>
    <path fill="#222" d="M499,487.88H13a7.5,7.5,0,0,1-7.5-7.5V234.51A7.52,7.52,0,0,1,9,228.17L248.54,76.51a7.5,7.5,0,0,1,7.94-.05L502.93,228.12a7.51,7.51,0,0,1,3.57,6.39V480.38A7.5,7.5,0,0,1,499,487.88Zm-478.5-15h471V238.7l-238.89-147L20.5,238.64Z"></path>
    <path fill="hsl(342, 92%, 58%)" d="M377.48,144.41H329.91V410.12H174.09V144.41H126.52L252,31.62Z"></path>
    <path fill="#222" d="M329.91,417.62H174.09a7.5,7.5,0,0,1-7.5-7.5V151.91H126.52a7.5,7.5,0,0,1-5-13.08l63.41-57L247,26a7.5,7.5,0,0,1,10,0l62.07,55.79,63.41,57a7.5,7.5,0,0,1-5,13.08H337.41V410.12A7.5,7.5,0,0,1,329.91,417.62Zm-148.32-15H322.41V144.41a7.5,7.5,0,0,1,7.5-7.5h28L309.05,93,252,41.7,195,93l-48.87,43.92h28a7.5,7.5,0,0,1,7.5,7.5Z"></path>
    <path fill="hsl(200, 100%, 36%)" d="M499,480.38H13V234.51L152.4,346h208L499,234.51Z"></path>
    <path fill="#222" d="M499,487.88H13a7.5,7.5,0,0,1-7.5-7.5V234.51a7.5,7.5,0,0,1,12.18-5.86L155,338.46H357.72L494.3,228.67a7.5,7.5,0,0,1,12.2,5.84V480.38A7.5,7.5,0,0,1,499,487.88Zm-478.5-15h471V250.16L365.06,351.8a7.51,7.51,0,0,1-4.7,1.66h-208a7.51,7.51,0,0,1-4.68-1.64L20.5,250.11Z"></path>
    <path fill="#222" d="M499,464.9a7.42,7.42,0,0,1-4.68-1.64L357,353.46H154.28L17.7,463.25a7.5,7.5,0,1,1-9.4-11.69L146.94,340.11a7.5,7.5,0,0,1,4.7-1.65h208a7.51,7.51,0,0,1,4.68,1.64l139.4,111.45A7.49,7.49,0,0,1,499,464.9Z"></path>
  </g>
</svg>
