<svg xmlns="http://www.w3.org/2000/svg" width="142" height="142" viewBox="0 0 142 142" fill="none"><path d="M119.017 42.2694L115.887 40.4504C116.727 40.9384 117.888 40.8684 119.169 40.1284L122.299 41.9474C121.018 42.6874 119.857 42.7574 119.017 42.2694Z" fill="#75BADD"></path><path d="M122.225 29.1162L125.355 30.9352C126.2 31.4262 126.703 32.5232 126.707 34.0492C126.715 37.0142 124.879 40.4572 122.298 41.9472L119.168 40.1282C121.749 38.6382 123.585 35.1952 123.577 32.2302C123.573 30.7042 123.07 29.6072 122.225 29.1162Z" fill="#75BADD"></path><path d="M124.587 25.4823L127.717 27.3013C126.313 26.4853 124.374 26.5843 122.259 27.8053L119.129 25.9863C121.245 24.7643 123.183 24.6673 124.587 25.4823Z" fill="#75BADD"></path><path d="M108.221 35.9103L105.09 34.0913L119.128 25.9863L122.258 27.8053L108.221 35.9103Z" fill="#75BADD"></path><path d="M108.271 53.5393L105.14 51.7193L105.09 34.0913L108.221 35.9103L108.271 53.5393Z" fill="#D94141"></path><path d="M122.26 27.8056C126.457 25.3826 129.956 27.3766 129.97 32.1666C129.984 36.9896 126.507 43.0116 122.31 45.4346L108.273 53.5386L108.223 35.9096L122.26 27.8056ZM122.3 41.9476C124.881 40.4576 126.717 37.0146 126.709 34.0496C126.701 31.1166 124.851 29.7696 122.27 31.2596C119.718 32.7336 117.654 36.3396 117.663 39.2726C117.671 42.2376 119.748 43.4216 122.3 41.9476Z" fill="#209FD1"></path><path d="M132.038 48.7587L111.518 51.0097L94.9222 41.4247L65.0742 24.1847C73.4372 19.6817 81.3492 19.1677 86.9452 22.5767L87.2022 22.7697L132.038 48.7577V48.7587Z" fill="#75BADD"></path><path d="M91.2806 120.159L44.1445 90.3059L86.5715 86.1069L91.2806 120.159Z" fill="#007CBB"></path><path d="M94.9208 41.426C94.5348 62.847 77.1668 89.35 57.8688 94.689C46.4188 97.841 37.6058 90.701 36.5768 77.642C36.2548 73.718 36.5128 69.73 37.3488 65.677C37.9918 62.204 35.8048 60.595 33.0388 62.204L1.13281 80.601V61.045L63.9158 24.765C64.3018 24.572 64.6878 24.315 65.0738 24.186L94.9208 41.426Z" fill="#D94141"></path><path d="M141.188 63.0631C143.92 85.2041 125.26 115.766 104.373 121.554C92.8726 124.741 84.1096 117.59 83.0626 104.528C82.7506 100.642 83.0206 96.6131 83.7996 92.5661C84.4656 89.1091 82.2556 87.4971 79.5126 89.0811L47.6016 107.505V87.9361L110.379 51.6921C125.343 43.0521 139.216 47.0751 141.189 63.0641L141.188 63.0631Z" fill="#209FD1"></path><path d="M127.145 69.1901C124.192 67.3431 119.946 67.5281 115.33 70.2981C106.099 75.6521 98.7139 88.3911 98.7139 98.9141C98.7139 104.268 100.56 107.96 103.514 109.807L100.929 108.145C97.9759 106.484 96.1289 102.791 96.1289 97.4371C96.1289 86.9131 103.514 73.9911 112.745 68.8211C117.361 66.0521 121.606 65.8681 124.561 67.5291L127.145 69.1911V69.1901Z" fill="#B0DBEB"></path><path d="M115.269 70.2827C124.464 64.9737 132.032 69.1517 132.062 79.7167C132.092 90.2817 124.573 103.306 115.378 108.614C106.184 113.922 98.7332 109.541 98.7032 98.9757C98.6732 88.4107 106.075 75.5917 115.269 70.2827Z" fill="#75BADD"></path><path d="M1.11719 80.654L47.5992 107.49V87.921L1.11719 61.085V80.654Z" fill="#1E8DC4"></path><path d="M3.80859 79.8399L44.9136 103.572V88.7349L3.80859 65.0029V79.8399Z" fill="#007CBB"></path><path d="M3.80859 79.8401L44.9136 103.572V99.0821L3.80859 75.3501V79.8401Z" fill="#005F9E"></path><path d="M47.5981 87.9131L1.11719 61.0771L65.0542 24.1631L111.535 50.9991L47.5981 87.9131Z" fill="#75BADD"></path><path d="M78.0574 66.5307L38.1523 43.4907L53.1964 34.8047L93.1024 57.8447L78.0574 66.5307Z" fill="#209FD1"></path><path d="M77.7494 64.1987L42.1914 43.6697L53.5074 37.1367L89.0644 57.6657L77.7494 64.1987Z" fill="#007CBB"></path></svg>